<svg version="1.1" id="Layer_1" xmlns="http://www.w3.org/2000/svg" x="0" y="0" viewBox="0 0 1920 702" xml:space="preserve"><style>.st0{opacity:.5}.st1{fill:#f15a24}.st2{fill:#f14224}.st3{fill:#f14624}.st4{fill:#f14124}.st5{fill:#f13c24}.st6{fill:#f15024}</style><g class="st0 up"><path class="st1" d="M0 59.7h76.93v350.83H0z"/></g><g class="st0 up"><path class="st2" d="M461.57 222.65h76.93v350.83h-76.93z"/></g><g class="st0 up"><path class="st3" d="M384.64 194.68h76.93v350.83h-76.93z"/></g><g class="st0 up"><path class="st4" d="M307.71 245.14h76.93v350.83h-76.93z"/></g><g class="st0 up"><path class="st5" d="M230.78 285.27h76.93V636.1h-76.93z"/></g><g class="st0 up"><path class="st3" d="M153.86 189.21h76.93v361.77h-76.93z"/></g><g class="st0 up"><path class="st6" d="M76.93 144.82h76.93v350.83H76.93z"/></g><g class="st0 up"><path class="st1" d="M923.41 122.59h76.93v350.83h-76.93z"/></g><g class="st0 up"><path class="st3" d="M538.77 257.58h76.93v350.83h-76.93z"/></g><g class="st0 up"><path class="st4" d="M615.7 308.04h76.93v350.83H615.7z"/></g><g class="st0 up"><path class="st5" d="M692.63 348.17h76.93V699h-76.93z"/></g><g class="st0 up"><path class="st3" d="M769.56 252.1h76.93v361.77h-76.93z"/></g><g class="st0 up"><path class="st6" d="M846.48 207.72h76.93v350.83h-76.93z"/></g><g class="st0 up"><path class="st1" d="M1845.07.25H1922v350.83h-76.93z"/></g><g class="st0 up"><path class="st2" d="M1383.5 163.2h76.93v350.83h-76.93z"/></g><g class="st0 up"><path class="st3" d="M1460.43 135.23h76.93v350.83h-76.93z"/></g><g class="st0 up"><path class="st4" d="M1537.36 185.69h76.93v350.83h-76.93z"/></g><g class="st0 up"><path class="st5" d="M1614.29 225.82h76.93v350.83h-76.93z"/></g><g class="st0 up"><path class="st3" d="M1691.22 129.76h76.93v361.77h-76.93z"/></g><g class="st0 up"><path class="st6" d="M1768.14 85.37h76.93V436.2h-76.93z"/></g><g class="st0 up"><path class="st3" d="M1308.3 198.13h76.93v350.83h-76.93z"/></g><g class="st0 up"><path class="st4" d="M1231.37 248.59h76.93v350.83h-76.93z"/></g><g class="st0 up"><path class="st5" d="M1154.44 288.72h76.93v350.83h-76.93z"/></g><g class="st0 up"><path class="st3" d="M1077.52 193.65h76.93v361.77h-76.93z"/></g><g class="st0 up"><path class="st6" d="M1000.59 148.27h76.93V499.1h-76.93z"/></g></svg>
